<svg width="33" height="33" viewBox="0 0 33 33" fill="none" xmlns="http://www.w3.org/2000/svg">
<path fill-rule="evenodd" clip-rule="evenodd" d="M9.75787 10.8599C9.75787 7.35096 12.6125 4.49634 16.1214 4.49634C19.6303 4.49634 22.4849 7.35096 22.4849 10.8599C22.4849 14.3687 19.6303 17.2234 16.1214 17.2234C12.6125 17.2234 9.75787 14.3687 9.75787 10.8599ZM16.1214 7.95977C14.5218 7.95977 13.2213 9.26028 13.2213 10.8599C13.2213 12.4594 14.5228 13.7599 16.1214 13.7599C17.721 13.7599 19.0215 12.4594 19.0215 10.8599C19.0215 9.26028 17.721 7.95977 16.1214 7.95977Z" fill="#323C48"/>
<path d="M29.775 23.6763H27.8705V21.7717C27.8705 21.0522 27.2874 20.4682 26.5669 20.4682C25.8463 20.4682 25.2633 21.0512 25.2633 21.7717V23.6763H23.3587C22.6392 23.6763 22.0552 24.2593 22.0552 24.9799C22.0552 25.7004 22.6382 26.2834 23.3587 26.2834H25.2633V28.188C25.2633 28.9075 25.8463 29.4916 26.5669 29.4916C27.2874 29.4916 27.8705 28.9086 27.8705 28.188V26.2834H29.775C30.4945 26.2834 31.0786 25.7004 31.0786 24.9799C31.0786 24.2593 30.4956 23.6763 29.775 23.6763V23.6763Z" fill="#323C48"/>
<path fill-rule="evenodd" clip-rule="evenodd" d="M16.1214 0C13.9466 0 11.8354 0.426693 9.84478 1.26828L9.84472 1.26831C7.92413 2.08082 6.20112 3.24281 4.72149 4.72136C3.24176 6.20002 2.07974 7.92417 1.26828 9.84478C0.426693 11.8354 0 13.9466 0 16.1214C0 18.2962 0.426693 20.4074 1.26828 22.398L1.26831 22.3981C2.08082 24.3187 3.24281 26.0417 4.72136 27.5213L4.72143 27.5214C6.20105 29.001 7.92409 30.163 9.84473 30.9745C11.8343 31.8161 13.9466 32.2428 16.1214 32.2428C18.2962 32.2428 20.4074 31.8161 22.398 30.9745L22.3986 30.9742C22.4157 30.967 22.4326 30.9596 22.4492 30.9524C22.4615 30.947 22.4737 30.9417 22.4856 30.9364L22.4864 30.9361C22.5149 30.9236 22.5419 30.9117 22.569 30.9002L22.9765 30.7266L22.6173 30.4674C21.7231 29.8223 20.9935 28.966 20.5006 27.9692L20.4029 27.7715L20.1945 27.8438C18.9189 28.2866 17.5488 28.5294 16.1214 28.5294C13.9502 28.5294 11.9103 27.9721 10.1363 26.9924C10.6209 24.1264 13.1204 21.937 16.1214 21.937C17.4648 21.937 18.7073 22.3758 19.7145 23.1178L19.9983 23.3268L20.1018 22.9899C20.4138 21.9743 20.9606 21.061 21.6773 20.3106L21.8805 20.0979L21.6378 19.9317C20.0667 18.8557 18.1671 18.2235 16.1224 18.2235C11.9578 18.2235 8.39284 20.8393 6.98315 24.5133C4.9536 22.3038 3.71449 19.3582 3.71449 16.1225C3.71449 9.2697 9.2697 3.71449 16.1224 3.71449C22.9752 3.71449 28.5304 9.2697 28.5304 16.1225C28.5304 16.8393 28.4692 17.5404 28.352 18.2239L28.3147 18.4416L28.5261 18.5055C29.6004 18.8299 30.5626 19.4135 31.3382 20.185L31.6495 20.4947L31.7569 20.0689C32.0805 18.7864 32.2438 17.4665 32.2438 16.1225C32.2438 13.9476 31.8171 11.8364 30.9756 9.84584L30.9755 9.84578C30.163 7.92519 29.001 6.20217 27.5225 4.72255L27.5224 4.72248C26.0428 3.24286 24.3198 2.08085 22.3991 1.26937C20.4075 0.426698 18.2962 0 16.1214 0Z" fill="#323C48"/>
</svg>
