<svg width="32" height="28" viewBox="0 0 32 28" fill="none" xmlns="http://www.w3.org/2000/svg">
<path d="M2.44765 0C1.09546 0 0 1.09546 0 2.44765V25.3087C0 26.6609 1.09546 27.7564 2.44765 27.7564C3.79984 27.7564 4.8953 26.6609 4.8953 25.3087V2.44765C4.8953 1.09546 3.79984 0 2.44765 0Z" fill="#323C48"/>
<path d="M29.5523 11.4302H16.4732L18.8109 9.09247C19.7672 8.13626 19.7672 6.58716 18.8109 5.63095C17.8547 4.67473 16.3056 4.67473 15.3494 5.63095L7.10248 13.8779L15.3494 22.1249C15.827 22.6024 16.4536 22.8417 17.0802 22.8417C17.7068 22.8417 18.3334 22.6024 18.8109 22.1249C19.7672 21.1686 19.7672 19.6195 18.8109 18.6633L16.4732 16.3256H29.5523C30.9045 16.3256 32 15.2301 32 13.8779C32 12.5257 30.9045 11.4302 29.5523 11.4302Z" fill="#323C48"/>
</svg>
