<svg width="29" height="30" viewBox="0 0 29 30" fill="none" xmlns="http://www.w3.org/2000/svg">
<path d="M27.7709 9.60092C27.0451 7.88541 26.0075 6.34554 24.6853 5.02343C23.3632 3.70132 21.8234 2.66372 20.1079 1.93786C18.3301 1.18607 16.4435 0.804993 14.4999 0.804993C12.5563 0.804993 10.6703 1.18607 8.8926 1.93786C7.1771 2.66372 5.63723 3.70132 4.31512 5.02343C2.99301 6.34554 1.95541 7.88541 1.22955 9.60092C0.477759 11.3786 0.0966797 13.2652 0.0966797 15.2082C0.0966797 17.1512 0.477759 19.0378 1.22955 20.8155C1.95541 22.531 2.99301 24.0709 4.31512 25.393C5.63723 26.7151 7.1771 27.7527 8.8926 28.4786C10.6703 29.2304 12.5569 29.6115 14.4999 29.6115C16.4429 29.6115 18.3295 29.2304 20.1072 28.4786C21.8227 27.7527 23.3626 26.7151 24.6847 25.393C26.0068 24.0709 27.0444 22.531 27.7703 20.8155C28.5221 19.0378 28.9031 17.1512 28.9031 15.2082C28.9031 13.2652 28.5221 11.3786 27.7703 9.60092H27.7709ZM14.4999 26.6957C12.4338 26.6957 10.4953 26.15 8.82002 25.1947C9.21082 22.4092 11.6088 20.2588 14.4999 20.2588C17.3911 20.2588 19.789 22.4092 20.1798 25.1947C18.5045 26.1493 16.566 26.6957 14.4999 26.6957ZM22.7048 23.2472C21.5538 19.8194 18.3107 17.343 14.4999 17.343C10.6891 17.343 7.44606 19.8194 6.29505 23.2472C4.26522 21.1752 3.01245 18.3385 3.01245 15.2089C3.01245 8.86468 8.15572 3.72206 14.4993 3.72206C20.8428 3.72206 25.9861 8.86533 25.9861 15.2089C25.9861 18.3385 24.734 21.1752 22.7035 23.2472H22.7048Z" fill="#D9D9D9"/>
<path d="M14.4998 5.34552C11.3779 5.34552 8.83801 7.8854 8.83801 11.0073C8.83801 14.1291 11.3779 16.669 14.4998 16.669C17.6216 16.669 20.1615 14.1291 20.1615 11.0073C20.1615 7.8854 17.6216 5.34552 14.4998 5.34552ZM14.4998 13.7519C12.9858 13.7519 11.7544 12.5206 11.7544 11.0066C11.7544 9.49267 12.9858 8.26129 14.4998 8.26129C16.0137 8.26129 17.2451 9.49267 17.2451 11.0066C17.2451 12.5206 16.0137 13.7519 14.4998 13.7519Z" fill="#68D5E3"/>
</svg>
