<svg width="25" height="27" viewBox="0 0 25 27" fill="none" xmlns="http://www.w3.org/2000/svg">
<g clip-path="url(#clip0_1_510)">
<path d="M24.4612 23.3343L18.5127 17.3858C19.9309 15.609 20.7802 13.3594 20.7802 10.9145C20.7802 5.1849 16.1187 0.524414 10.3901 0.524414C10.3759 0.524414 10.3618 0.524414 10.3476 0.524414C10.3439 0.524414 10.3401 0.524414 10.3372 0.524414C4.6369 0.524414 0 5.16131 0 10.8607C0 10.8702 0 10.8786 0 10.8871C0 10.8966 0 10.9051 0 10.9136C0 16.6422 4.66049 21.3036 10.3901 21.3036C12.3462 21.3036 14.1768 20.7601 15.7404 19.8165L21.8587 25.9349C22.2182 26.2944 22.6891 26.4737 23.16 26.4737C23.6308 26.4737 24.1017 26.2944 24.4612 25.9349C25.1802 25.2168 25.1802 24.0514 24.4612 23.3324V23.3343ZM16.985 10.8494C16.985 14.5219 13.9966 17.5103 10.324 17.5103C9.17849 17.5103 8.099 17.2197 7.15634 16.7073C5.087 15.5769 3.68008 13.3802 3.68008 10.8607C3.68008 7.19007 6.66566 4.20449 10.3363 4.20449C10.4033 4.20449 10.4694 4.20072 10.5345 4.19317C14.1098 4.30452 16.985 7.24669 16.985 10.8484V10.8494Z" fill="#323C48"/>
</g>
<defs>
<clipPath id="clip0_1_510">
<rect width="25" height="25.9512" fill="white" transform="translate(0 0.524414)"/>
</clipPath>
</defs>
</svg>
