<svg width="353" height="68" viewBox="0 0 353 68" fill="none" xmlns="http://www.w3.org/2000/svg">
<path d="M79.3749 17.5607H61.5704C61.1927 17.4942 60.8043 17.5132 60.4361 17.6188C60.068 17.7244 59.7287 17.9106 59.4469 18.1657C59.1652 18.4207 58.9469 18.7363 58.8103 19.0874C58.6736 19.4385 58.622 19.817 58.6592 20.1918V47.283C58.6592 48.9474 59.6028 49.7908 61.4637 49.7908H62.3066C64.1328 49.7908 65.0596 48.9474 65.0596 47.283V36.1841H74.1603C77.5908 36.1841 78.809 34.3905 78.809 32.8542C78.809 31.5173 77.9181 30.8387 76.1615 30.8387H65.0608V22.9061H77.321C80.7478 22.9061 81.9696 21.1859 81.9696 19.5762C81.9696 18.2392 81.0967 17.5607 79.3761 17.5607H79.3749Z" fill="white"/>
<path d="M110.043 17.5607H92.2382C91.8605 17.4942 91.472 17.5132 91.1039 17.6188C90.7358 17.7244 90.3965 17.9106 90.1147 18.1657C89.833 18.4207 89.6147 18.7363 89.478 19.0874C89.3413 19.4385 89.2898 19.817 89.327 20.1918V47.283C89.327 48.9474 90.2706 49.7908 92.1315 49.7908H92.9744C94.8006 49.7908 95.7274 48.9474 95.7274 47.283V36.1841H104.828C108.259 36.1841 109.477 34.3905 109.477 32.8542C109.477 31.5173 108.586 30.8387 106.829 30.8387H95.7286V22.9061H107.989C111.416 22.9061 112.637 21.1859 112.637 19.5762C112.637 18.2392 111.766 17.5607 110.044 17.5607H110.043Z" fill="white"/>
<path d="M138.641 22.9062C142.068 22.9062 143.29 21.1861 143.29 19.5763C143.29 18.2393 142.418 17.5608 140.694 17.5608H122.836C121.984 17.5608 119.715 17.5608 119.715 20.3165V47.2832C119.696 47.6485 119.762 48.0127 119.907 48.3496C120.052 48.6865 120.273 48.9867 120.553 49.2275C120.833 49.4683 121.165 49.6451 121.525 49.7423C121.884 49.8396 122.261 49.8562 122.627 49.791H140.167C140.521 49.8539 140.886 49.8372 141.232 49.7423C141.579 49.6474 141.899 49.4766 142.169 49.2441C142.438 49.0104 142.651 48.721 142.791 48.3947C142.93 48.0697 142.992 47.7174 142.973 47.365V46.8715C142.973 45.2617 142.029 44.4456 140.169 44.4456H126.117V35.7323H135.586C139.016 35.7323 140.234 33.9612 140.234 32.4427C140.234 31.1058 139.363 30.4272 137.641 30.4272H126.117V22.9062H138.641Z" fill="white"/>
<path d="M170.351 37.1616C176.391 35.1865 177.682 30.9408 177.682 27.6737C177.682 21.2464 172.244 17.5607 162.762 17.5607H154.756C154.378 17.4942 153.99 17.5132 153.622 17.6188C153.254 17.7244 152.914 17.9106 152.632 18.1657C152.351 18.4207 152.132 18.7363 151.996 19.0874C151.859 19.4385 151.808 19.817 151.845 20.1918V47.283C151.845 48.9474 152.788 49.7908 154.649 49.7908H155.492C157.318 49.7908 158.245 48.9474 158.245 47.283V38.1985H162.762C163.004 38.1985 163.26 38.1985 163.515 38.1925L172.233 48.531C172.634 49.015 173.158 49.3863 173.751 49.607C174.345 49.8288 174.987 49.8917 175.614 49.7908H176.351C176.805 49.8715 177.274 49.8039 177.685 49.5963C178.096 49.3899 178.426 49.0565 178.625 48.6473C178.824 48.238 178.879 47.7765 178.785 47.3329C178.689 46.8892 178.448 46.4894 178.098 46.194L170.349 37.1616H170.351ZM162.762 32.9349H158.245V22.8242H162.762C168.276 22.8242 171.071 24.4565 171.071 27.6737C171.071 29.1127 171.071 32.9349 162.762 32.9349Z" fill="white"/>
<path d="M209.412 17.5276H190.631C188.141 17.5833 187.258 18.4648 187.258 20.8955V46.4208C187.258 48.9475 188.622 49.4553 190.821 49.4553H192.417C194.617 49.4553 195.981 48.9475 195.981 46.4208V37.2745H202.54C207.318 37.2745 209.458 34.9565 209.458 32.6598C209.458 30.6218 207.677 30.6218 206.376 30.6218H195.981V24.1803H205.576C210.354 24.1803 212.493 21.8623 212.493 19.5656C212.493 17.5276 210.711 17.5276 209.41 17.5276H209.412Z" fill="white"/>
<path d="M222.727 17.5276H221.98C219.279 17.5276 217.993 18.0318 217.993 20.8955V46.4208C217.993 48.9475 219.355 49.4553 221.554 49.4553H223.153C225.353 49.4553 226.717 48.9475 226.717 46.4208V20.8955C226.717 18.0318 225.431 17.5276 222.727 17.5276Z" fill="white"/>
<path d="M258.618 36.9696C260.633 36.4239 262.404 35.2329 263.65 33.5851C264.896 31.9374 265.545 29.9302 265.493 27.8791C265.493 21.3011 259.651 17.5264 249.467 17.5264H240.994C238.293 17.5264 237.008 18.0305 237.008 20.8942V46.4207C237.008 48.9475 238.37 49.4552 240.569 49.4552H242.167C244.367 49.4552 245.73 48.9475 245.73 46.4207V38.3148H249.548L257.148 47.6046C258.492 49.2963 259.588 49.4552 262.144 49.4552H263.637C266.181 49.4552 266.559 48.2583 266.559 47.5429C266.488 46.7719 266.164 46.0447 265.637 45.4681L258.618 36.9684V36.9696ZM249.467 31.8709H245.73V23.9726H249.467C256.346 23.9726 256.346 26.9134 256.346 27.8803C256.346 30.5292 254.03 31.8709 249.467 31.8709Z" fill="white"/>
<path d="M290.644 30.1234C290.028 29.9656 289.402 29.8185 288.777 29.6738C284.928 28.7746 282.59 28.0949 282.59 26.2585C282.59 25.6203 282.59 23.6819 288.349 23.6819C291.312 23.6546 294.258 24.1303 297.056 25.0876C297.446 25.2466 297.869 25.313 298.291 25.2834C298.714 25.2525 299.121 25.1256 299.483 24.9121C299.765 24.6665 299.985 24.3593 300.122 24.0152C300.26 23.6712 300.314 23.2999 300.278 22.9322C300.301 22.1006 300.082 21.2797 299.648 20.5655C299.214 19.8514 298.582 19.2725 297.825 18.8964C294.784 17.4954 291.438 16.8536 288.083 17.028C275.621 17.028 273.76 22.9666 273.76 26.5064C273.76 32.7522 280.126 34.9362 284.914 36.0359L285.253 36.1142C289.509 37.0976 292.299 37.9209 292.299 40.3077C292.299 42.322 290.058 43.3422 285.634 43.3422C282.393 43.3351 279.182 42.7206 276.175 41.5331C275.096 41.1855 274.082 40.8546 273.211 41.4702C272.915 41.7277 272.685 42.0503 272.54 42.4121C272.395 42.774 272.338 43.1631 272.374 43.5498C272.374 45.9425 273.704 47.5428 276.549 48.5808C279.631 49.5844 282.866 50.0613 286.112 49.9937C298.523 49.9937 301.126 44.5676 301.126 40.0159C301.126 33.5162 295.517 31.3109 290.644 30.1199V30.1234Z" fill="white"/>
<path d="M333.254 17.5276H308.694C307.1 17.5276 305.401 17.7435 305.401 20.3142V21.3949C305.401 23.9656 307.1 24.1803 308.694 24.1803H316.639V46.4208C316.639 48.9475 318.004 49.4553 320.203 49.4553H321.802C324.001 49.4553 325.363 48.9475 325.363 46.4208V24.1803H329.58C334.246 24.1803 336.337 21.8836 336.337 19.6071C336.337 17.5276 334.556 17.5276 333.254 17.5276Z" fill="white"/>
<path d="M37.94 44.46H22.26C22.26 44.46 22.16 44.46 22.12 44.43C22.07 44.41 22.03 44.38 22 44.35C21.97 44.32 21.94 44.28 21.92 44.23C21.9 44.19 21.89 44.14 21.89 44.09V24.15C21.89 24.15 21.89 24.06 21.92 24.01C21.94 23.97 21.97 23.93 22 23.89C22.03 23.86 22.08 23.83 22.12 23.81C22.16 23.79 22.21 23.78 22.26 23.78H30.51L30.81 23.64L34.25 19.23C34.34 19.12 34.39 18.98 34.41 18.84C34.42 18.7 34.4 18.56 34.33 18.43C34.27 18.3 34.17 18.2 34.04 18.12C33.92 18.05 33.78 18 33.63 18H19.42C18.97 18 18.53 18.09 18.11 18.26C17.7 18.43 17.32 18.68 17 18.99C16.68 19.3 16.43 19.67 16.26 20.08C16.09 20.49 16 20.92 16 21.36V46.86C16 47.75 16.36 48.61 17.01 49.25C17.66 49.88 18.53 50.24 19.44 50.24H37.76C38.14 50.24 38.51 50.09 38.78 49.83C39.05 49.57 39.2 49.2 39.2 48.83V45.7C39.2 45.54 39.17 45.38 39.1 45.23C39.04 45.08 38.94 44.95 38.83 44.83C38.71 44.71 38.57 44.62 38.42 44.56C38.27 44.5 38.1 44.47 37.94 44.47V44.46Z" fill="white"/>
<path d="M45.3202 18.01H40.9102C40.6002 18.01 40.3002 18.08 40.0302 18.21C39.7602 18.34 39.5102 18.54 39.3302 18.78L36.6802 22.18C36.5602 22.33 36.4902 22.51 36.4802 22.69C36.4602 22.88 36.5002 23.06 36.5802 23.23C36.6602 23.4 36.7902 23.54 36.9602 23.64C37.1202 23.74 37.3102 23.79 37.5002 23.79H42.5402C42.6002 23.79 42.6502 23.8 42.7102 23.82C42.7602 23.84 42.8102 23.87 42.8502 23.91C42.8902 23.95 42.9202 24 42.9402 24.05C42.9602 24.1 42.9702 24.16 42.9702 24.21V44.46V48.94C42.9702 49.28 43.1102 49.61 43.3602 49.85C43.6102 50.09 43.9402 50.23 44.2902 50.23H45.6302C46.4902 50.23 47.3102 49.9 47.9202 49.3C48.5302 48.7 48.8702 47.89 48.8702 47.05V21.48C48.8702 20.56 48.5002 19.68 47.8302 19.03C47.1602 18.38 46.2602 18.01 45.3202 18.01Z" fill="white"/>
<path d="M37.4999 42.26C36.9999 42.26 36.5099 42.05 36.1599 41.64L30.3299 34.75C29.4999 33.76 29.4599 32.35 30.2299 31.32L33.5999 26.84C34.1799 26.07 35.2799 25.91 36.0499 26.49C36.8199 27.07 36.9799 28.17 36.3999 28.94L33.3899 32.94L38.8399 39.38C39.4599 40.12 39.3699 41.22 38.6299 41.85C38.2999 42.13 37.8999 42.26 37.4999 42.26Z" fill="white"/>
</svg>
